<mxfile host="app.diagrams.net" modified="2024-02-05T00:04:45.696Z" agent="Mozilla/5.0 (Macintosh; Intel Mac OS X 10_15_7) AppleWebKit/537.36 (KHTML, like Gecko) Chrome/120.0.0.0 Safari/537.36" etag="e6xHI7sH9nOn7SDBTJZP" version="22.1.18" type="github">
  <diagram id="jk84KoCiqGRbvonOO5nR" name="Page-1">
    <mxGraphModel dx="1069" dy="1147" grid="0" gridSize="10" guides="1" tooltips="1" connect="1" arrows="1" fold="1" page="1" pageScale="1" pageWidth="1000" pageHeight="300" background="#EFF1F3" math="0" shadow="0">
      <root>
        <mxCell id="0" />
        <mxCell id="1" parent="0" />
        <mxCell id="zeDkDpAEbT0e0O8mL41E-2" value="" style="shape=image;verticalLabelPosition=bottom;verticalAlign=top;imageAspect=0;aspect=fixed;image=data:image/svg+xml,PHN2ZyB4bWxuczp4bGluaz0iaHR0cDovL3d3dy53My5vcmcvMTk5OS94bGluayIgeG1sbnM9Imh0dHA6Ly93d3cudzMub3JnLzIwMDAvc3ZnIiBoZWlnaHQ9IjIwMCIgd2lkdGg9IjIwMCIgdmVyc2lvbj0iMS4xIiB2aWV3Qm94PSIwIDAgMTAyNCAxMDI0IiBjbGFzcz0iaWNvbiI+PGRlZnM+PHN0eWxlIHR5cGU9InRleHQvY3NzIj5AZm9udC1mYWNlIHsgZm9udC1mYW1pbHk6IGZlZWRiYWNrLWljb25mb250OyBzcmM6IHVybCgiLy9hdC5hbGljZG4uY29tL3QvZm9udF8xMDMxMTU4X3U2OXc4eWh4ZHUud29mZjI/dD0xNjMwMDMzNzU5OTQ0IikgZm9ybWF0KCJ3b2ZmMiIpLCB1cmwoIi8vYXQuYWxpY2RuLmNvbS90L2ZvbnRfMTAzMTE1OF91Njl3OHloeGR1LndvZmY/dD0xNjMwMDMzNzU5OTQ0IikgZm9ybWF0KCJ3b2ZmIiksIHVybCgiLy9hdC5hbGljZG4uY29tL3QvZm9udF8xMDMxMTU4X3U2OXc4eWh4ZHUudHRmP3Q9MTYzMDAzMzc1OTk0NCIpIGZvcm1hdCgidHJ1ZXR5cGUiKTsgfSYjeGE7PC9zdHlsZT48L2RlZnM+PHBhdGggZmlsbD0iIzRBOTE5QiIgZD0iTTk2MCA5NDRINjRjLTM1LjI5NiAwLTY0LTI4LjcwNC02NC02NFY2NTZjMC0zNS4yOTYgMjguNzA0LTY0IDY0LTY0aDg5NmMzNS4yOTYgMCA2NCAyOC43MDQgNjQgNjR2MjI0YzAgMzUuMjk2LTI4LjcwNCA2NC02NCA2NHpNNjQgNjI0Yy0xNy42NDggMC0zMiAxNC4zNTItMzIgMzJ2MjI0YzAgMTcuNjQ4IDE0LjM1MiAzMiAzMiAzMmg4OTZjMTcuNjQ4IDAgMzItMTQuMzUyIDMyLTMyVjY1NmMwLTE3LjY0OC0xNC4zNTItMzItMzItMzJINjR6Ii8+PHBhdGggZmlsbD0iIzRBOTE5QiIgZD0iTTI0MCAxMDA4SDExMmExNiAxNiAwIDAgMS0xNi0xNnYtNjRhMTYgMTYgMCAwIDEgMTYtMTZoMTI4YTE2IDE2IDAgMCAxIDE2IDE2djY0YTE2IDE2IDAgMCAxLTE2IDE2eiBtLTExMi0zMmg5NnYtMzJIMTI4djMyek05MTIgMTAwOGgtMTI4YTE2IDE2IDAgMCAxLTE2LTE2di02NGExNiAxNiAwIDAgMSAxNi0xNmgxMjhhMTYgMTYgMCAwIDEgMTYgMTZ2NjRhMTYgMTYgMCAwIDEtMTYgMTZ6IG0tMTEyLTMyaDk2di0zMmgtOTZ2MzJ6TTg1Ni42NTYgNDYwLjE2YTE1Ljk4NCAxNS45ODQgMCAwIDEtNi44MTYtMzAuNDk2QzkxNi43NjggMzk4LjI3MiA5NjAgMzMwLjA5NiA5NjAgMjU2YzAtMTA1Ljg3Mi04Ni4xMjgtMTkyLTE5Mi0xOTJTNTc2IDE1MC4xMjggNTc2IDI1NmMwIDc0LjA4IDQzLjIzMiAxNDIuMjcyIDExMC4xNiAxNzMuNjY0YTE2IDE2IDAgMCAxLTEzLjYgMjguOTc2QzU5NC40OCA0MjEuOTg0IDU0NCAzNDIuNDQ4IDU0NCAyNTZjMC0xMjMuNTIgMTAwLjQ4LTIyNCAyMjQtMjI0czIyNCAxMDAuNDggMjI0IDIyNGMwIDg2LjQ0OC01MC40NjQgMTY1Ljk4NC0xMjguNTYgMjAyLjY0YTE1Ljk2OCAxNS45NjggMCAwIDEtNi43ODQgMS41MnoiLz48cGF0aCBmaWxsPSIjNEE5MTlCIiBkPSJNODUzLjI5NiAzODcuODRhMTYgMTYgMCAwIDEtOS40ODgtMjguODk2QTEyOC4yNCAxMjguMjQgMCAwIDAgODk2IDI1NmMwLTcwLjU3Ni01Ny40MjQtMTI4LTEyOC0xMjhzLTEyOCA1Ny40MjQtMTI4IDEyOGExMjguMjQgMTI4LjI0IDAgMCAwIDUyLjE5MiAxMDIuOTQ0IDE2IDE2IDAgMCAxLTE4Ljk0NCAyNS43OTJBMTYwLjMzNiAxNjAuMzM2IDAgMCAxIDYwOCAyNTZjMC04OC4yMjQgNzEuNzc2LTE2MCAxNjAtMTYwczE2MCA3MS43NzYgMTYwIDE2MGMwIDUwLjYwOC0yNC4zODQgOTguNzItNjUuMjQ4IDEyOC43MzZhMTUuOTIgMTUuOTIgMCAwIDEtOS40NCAzLjEwNHoiLz48cGF0aCBmaWxsPSIjNEE5MTlCIiBkPSJNODQ3LjY5NiAyNzYuNDhhMTYgMTYgMCAwIDEtMTUuNjY0LTE5LjM5MkM4MzIgMjIwLjY4OCA4MDMuMzEyIDE5MiA3NjggMTkycy02NCAyOC43MDQtNjQgNjRjMS44NzIgOC42NC0zLjYzMiAxNy42OTYtMTIuMjcyIDE5LjU2OC04LjU5MiAxLjg4OC0xNy4xODQtMy4wNC0xOS4wNTYtMTEuNjhDNjcyIDI2MC43MzYgNjcyIDI1Ny44ODggNjcyIDI1NmMwLTUyLjk0NCA0My4wNTYtOTYgOTYtOTZzOTYgNDMuMDU2IDk2IDk2YzAgMS45MDQgMCA0Ljc1Mi0wLjY3MiA3Ljg3MmExNi4wMTYgMTYuMDE2IDAgMCAxLTE1LjYzMiAxMi42MDh6Ii8+PHBhdGggZmlsbD0iIzRBOTE5QiIgZD0iTTgwMC4zMiA2MjRINzM2YTE1LjkzNiAxNS45MzYgMCAwIDEtMTEuNTY4LTQuOTYgMTUuOTA0IDE1LjkwNCAwIDAgMS00LjQxNi0xMS43NmwxNS4yNjQtMzM2LjAxNmEzMi43MzYgMzIuNzM2IDAgMCAxIDY1LjQyNCAwbDE1LjEzNiAzMzIuODMyQTE2IDE2IDAgMCAxIDgwMC4zMiA2MjR6IG0tNDcuNTItMzJoMzAuNDQ4bC0xNC41MTItMzE5LjI5Nkw3NTIuOCA1OTJ6TTE0NCA4MTZjLTI2LjQ2NCAwLTQ4LTIxLjUzNi00OC00OHMyMS41MzYtNDggNDgtNDggNDggMjEuNTM2IDQ4IDQ4LTIxLjUzNiA0OC00OCA0OHogbTAtNjRhMTYgMTYgMCAxIDAgMC4wMTYgMzIuMDE2QTE2IDE2IDAgMCAwIDE0NCA3NTJ6TTI3MiA4MTZjLTI2LjQ2NCAwLTQ4LTIxLjUzNi00OC00OHMyMS41MzYtNDggNDgtNDggNDggMjEuNTM2IDQ4IDQ4LTIxLjUzNiA0OC00OCA0OHogbTAtNjRhMTYgMTYgMCAxIDAgMC4wMTYgMzIuMDE2QTE2IDE2IDAgMCAwIDI3MiA3NTJ6TTQwMCA4MTZjLTI2LjQ2NCAwLTQ4LTIxLjUzNi00OC00OHMyMS41MzYtNDggNDgtNDggNDggMjEuNTM2IDQ4IDQ4LTIxLjUzNiA0OC00OCA0OHogbTAtNjRhMTYgMTYgMCAxIDAgMC4wMTYgMzIuMDE2QTE2IDE2IDAgMCAwIDQwMCA3NTJ6TTk0NCA4ODBjLTQuMTYgMC04LjMyLTEuNzYtMTEuMzYtNC42NEExNi44IDE2LjggMCAwIDEgOTI4IDg2NGMwLTQuMzIgMS43Ni04LjMyIDQuNjQtMTEuMzYgNS45Mi01LjkyIDE2LjgtNS45MiAyMi43MiAwIDIuODggMy4wNCA0LjY0IDcuMiA0LjY0IDExLjM2cy0xLjc2IDguMzItNC42NCAxMS4zNmMtMy4wNCAyLjg4LTcuMiA0LjY0LTExLjM2IDQuNjR6TTg4MCA4ODBjLTQuMTYgMC04LjMyLTEuNzYtMTEuMzYtNC42NC0yLjg4LTMuMDQtNC42NC03LjItNC42NC0xMS4zNnMxLjc2LTguMzIgNC42NC0xMS4zNmM1LjkyLTUuOTIgMTYuNjQtNS45MiAyMi43MiAwIDIuODggMy4wNCA0LjY0IDcuMiA0LjY0IDExLjM2cy0xLjc2IDguMzItNC42NCAxMS4zNmMtMy4wNCAzLjA0LTcuMiA0LjY0LTExLjM2IDQuNjR6TTgxNiA4ODBjLTQuMzIgMC04LjMyLTEuNzYtMTEuMzYtNC42NC0yLjg4LTMuMDQtNC42NC03LjItNC42NC0xMS4zNnMxLjc2LTguMzIgNC42NC0xMS4zNmM1LjkyLTUuOTIgMTYuOC01LjkyIDIyLjcyIDAgMi44OCAzLjA0IDQuNjQgNy4yIDQuNjQgMTEuMzZzLTEuNzYgOC4zMi00LjY0IDExLjM2Yy0zLjA0IDIuODgtNy4yIDQuNjQtMTEuMzYgNC42NHpNNzUyIDg4MGMtNC4xNiAwLTguMzItMS43Ni0xMS4zNi00LjY0LTIuODgtMy4wNC00LjY0LTcuMi00LjY0LTExLjM2czEuNzYtOC4zMiA0LjY0LTExLjM2YzYuMDgtNS45MiAxNi42NC01LjkyIDIyLjcyIDAgMi44OCAzLjA0IDQuNjQgNy4yIDQuNjQgMTEuMzZzLTEuNzYgOC4zMi00LjY0IDExLjM2Yy0zLjA0IDIuODgtNy4yIDQuNjQtMTEuMzYgNC42NHpNOTQ0IDgxNmMtNC4xNiAwLTguMzItMS43Ni0xMS4zNi00LjY0QTE2LjggMTYuOCAwIDAgMSA5MjggODAwYzAtNC4zMiAxLjc2LTguMzIgNC42NC0xMS4zNiA1LjkyLTUuOTIgMTYuOC01LjkyIDIyLjcyIDAgMi44OCAzLjA0IDQuNjQgNy4yIDQuNjQgMTEuMzZzLTEuNzYgOC4zMi00LjY0IDExLjM2Yy0zLjA0IDIuODgtNy4yIDQuNjQtMTEuMzYgNC42NHpNODgwIDgxNmMtNC4xNiAwLTguMzItMS43Ni0xMS4zNi00LjY0QTE2LjggMTYuOCAwIDAgMSA4NjQgODAwYzAtNC4zMiAxLjc2LTguMzIgNC42NC0xMS4zNiA1LjkyLTUuOTIgMTYuNjQtNS45MiAyMi43MiAwIDIuODggMy4wNCA0LjY0IDcuMiA0LjY0IDExLjM2cy0xLjc2IDguMzItNC42NCAxMS4zNmMtMy4wNCAyLjg4LTcuMiA0LjY0LTExLjM2IDQuNjR6TTgxNiA4MTZjLTQuMTYgMC04LjMyLTEuNzYtMTEuMzYtNC42NC0yLjg4LTMuMDQtNC42NC03LjItNC42NC0xMS4zNnMxLjc2LTguMzIgNC42NC0xMS4zNmM1LjkyLTUuOTIgMTYuOC01LjkyIDIyLjcyIDAgMi44OCAzLjA0IDQuNjQgNy4yIDQuNjQgMTEuMzZzLTEuNzYgOC4zMi00LjY0IDExLjM2Yy0zLjA0IDIuODgtNy4yIDQuNjQtMTEuMzYgNC42NHpNOTQ0IDc1MmMtNC4xNiAwLTguMzItMS43Ni0xMS4zNi00LjY0QTE2LjggMTYuOCAwIDAgMSA5MjggNzM2YzAtNC4zMiAxLjc2LTguMzIgNC42NC0xMS4zNiA1LjkyLTUuOTIgMTYuOC01LjkyIDIyLjcyIDAgMi44OCAzLjA0IDQuNjQgNy4yIDQuNjQgMTEuMzZzLTEuNzYgOC4zMi00LjY0IDExLjM2Yy0zLjA0IDIuODgtNy4yIDQuNjQtMTEuMzYgNC42NHpNODgwIDc1MmMtNC4xNiAwLTguMzItMS43Ni0xMS4zNi00LjY0QTE2LjggMTYuOCAwIDAgMSA4NjQgNzM2YzAtNC4zMiAxLjc2LTguMzIgNC42NC0xMS4zNiA1LjkyLTUuOTIgMTYuNjQtNS45MiAyMi43MiAwIDIuODggMy4wNCA0LjY0IDcuMiA0LjY0IDExLjM2cy0xLjc2IDguMzItNC42NCAxMS4zNmMtMy4wNCAyLjg4LTcuMiA0LjY0LTExLjM2IDQuNjR6TTk0NCA2ODhjLTQuMTYgMC04LjMyLTEuNzYtMTEuMzYtNC42NGExNi4xNiAxNi4xNiAwIDAgMSAwLTIyLjcyYzUuOTItNS45MiAxNi44LTUuOTIgMjIuNzIgMCAyLjg4IDMuMDQgNC42NCA3LjA0IDQuNjQgMTEuMzYgMCA0LjE2LTEuNzYgOC4zMi00LjY0IDExLjM2LTMuMDQgMi44OC03LjIgNC42NC0xMS4zNiA0LjY0eiIvPjwvc3ZnPg==" parent="1" vertex="1">
          <mxGeometry x="580" y="114" width="71" height="71" as="geometry" />
        </mxCell>
        <mxCell id="cjN5S5BkEElpEdepiPj0-2" value="" style="shape=flexArrow;endArrow=classic;startArrow=none;html=1;rounded=0;fontSize=26;strokeColor=none;fillColor=#F19C99;startFill=0;" parent="1" edge="1">
          <mxGeometry width="100" height="100" relative="1" as="geometry">
            <mxPoint x="559" y="161" as="sourcePoint" />
            <mxPoint x="446" y="161" as="targetPoint" />
          </mxGeometry>
        </mxCell>
        <mxCell id="cjN5S5BkEElpEdepiPj0-10" value="" style="shape=image;verticalLabelPosition=bottom;labelBackgroundColor=default;verticalAlign=top;aspect=fixed;imageAspect=0;image=data:image/svg+xml,PHN2ZyB4bWxuczp4bGluaz0iaHR0cDovL3d3dy53My5vcmcvMTk5OS94bGluayIgeG1sbnM9Imh0dHA6Ly93d3cudzMub3JnLzIwMDAvc3ZnIiBoZWlnaHQ9IjIwMCIgd2lkdGg9IjIwMCIgdmVyc2lvbj0iMS4xIiB2aWV3Qm94PSIwIDAgMTAyNCAxMDI0IiBjbGFzcz0iaWNvbiI+PHBhdGggZmlsbD0iI0YxOUM5OSIgZD0iTTk2MCAyNTMuMTg0bC00NDgtMTkyLTQ0OCAxOTJ2NTQ3LjM5Mmw0NDggMTkwLjcyIDM4LjY4OC0xNi40OGg4LjE5MnYtMy40ODhMOTYwIDgwMC42MDhWMjUzLjE4NHogbS00NDggMTYzLjQyNGwtMTEzLjUzNi00OC4zMiAzMTguOTQ0LTE0Ny4yYzAuNzM2LTAuMzUyIDEuMjE2LTAuOTkyIDEuOTItMS40MDhsMTI3LjIzMiA1NC41MjhMNTEyIDQxNi42MDh6IG0xMjguNzA0LTIzMC42MjRsLTMyMS42OTYgMTQ4LjQ4LTE0MS41NjgtNjAuMjg4TDUxMiAxMzAuODE2bDEyOC43MDQgNTUuMTY4ek0xMjggMzIyLjY4OGwxMjggNTQuNDk2VjU3NmEzMiAzMiAwIDEgMCA2NCAwdi0xNzEuNTJsMC4wNjQtMC4wMzIgMTc0LjgxNiA3NC40MzJ2NDM1LjU4NEwxMjggNzU4LjI3MlYzMjIuNjg4eiBtNDMwLjg4IDU3OS4xMDRWNDY2LjIwOEw4OTYgMzIyLjY4OHY0MzUuNjE2bC0zMzcuMTIgMTQzLjQ4OHoiLz48L3N2Zz4=;" parent="1" vertex="1">
          <mxGeometry x="460" y="176.5" width="39.5" height="39.5" as="geometry" />
        </mxCell>
        <mxCell id="cjN5S5BkEElpEdepiPj0-11" value="&lt;font color=&quot;#ea6b66&quot;&gt;ICMP报文&lt;/font&gt;" style="text;html=1;strokeColor=none;fillColor=none;align=center;verticalAlign=middle;whiteSpace=wrap;rounded=0;" parent="1" vertex="1">
          <mxGeometry x="500" y="181.25" width="57" height="30" as="geometry" />
        </mxCell>
        <mxCell id="Qu1Yj1PFPhfgV0YWFb1x-1" value="&lt;font style=&quot;font-size: 19px;&quot; color=&quot;#ea6b66&quot;&gt;20.20.20.20&lt;/font&gt;" style="text;html=1;strokeColor=none;fillColor=none;align=center;verticalAlign=middle;whiteSpace=wrap;rounded=0;" vertex="1" parent="1">
          <mxGeometry x="293" y="217.25" width="117" height="30" as="geometry" />
        </mxCell>
        <mxCell id="Qu1Yj1PFPhfgV0YWFb1x-3" value="" style="shape=image;verticalLabelPosition=bottom;labelBackgroundColor=default;verticalAlign=top;aspect=fixed;imageAspect=0;image=data:image/svg+xml,PHN2ZyB4bWxuczp4bGluaz0iaHR0cDovL3d3dy53My5vcmcvMTk5OS94bGluayIgeG1sbnM9Imh0dHA6Ly93d3cudzMub3JnLzIwMDAvc3ZnIiBoZWlnaHQ9IjIwMCIgd2lkdGg9IjIwMCIgdmVyc2lvbj0iMS4xIiB2aWV3Qm94PSIwIDAgMTAyNCAxMDI0IiBjbGFzcz0iaWNvbiI+PHBhdGggZmlsbD0iI0YxOUM5OSIgZD0iTTAgNzI4djEzNmMwIDM1LjMgMjguNyA2NCA2NCA2NGg4OTZjMzUuMyAwIDY0LTI4LjcgNjQtNjRWNzI4YzAtNC40LTMuNi04LTgtOEg4Yy00LjQgMC04IDMuNi04IDh6IG03NzQgOTZjMCA0LjQtMy42IDgtOCA4SDQyNGMtNC40IDAtOC0zLjYtOC04di00OGMwLTQuNCAzLjYtOCA4LThoMzQyYzQuNCAwIDggMy42IDggOHY0OHogbTEyMiAwYzAgNC40LTMuNiA4LTggOGgtNDhjLTQuNCAwLTgtMy42LTgtOHYtNDhjMC00LjQgMy42LTggOC04aDQ4YzQuNCAwIDggMy42IDggOHY0OHpNMCA1MzZ2MTQ0YzAgNC40IDMuNiA4IDggOGgxMDA4YzQuNCAwIDgtMy42IDgtOFY1MzZjMC00LjQtMy42LTgtOC04SDhjLTQuNCAwLTggMy42LTggOHogbTc3NCA5NmMwIDQuNC0zLjYgOC04IDhINDI0Yy00LjQgMC04LTMuNi04LTh2LTQ4YzAtNC40IDMuNi04IDgtOGgzNDJjNC40IDAgOCAzLjYgOCA4djQ4eiBtMTIyIDBjMCA0LjQtMy42IDgtOCA4aC00OGMtNC40IDAtOC0zLjYtOC04di00OGMwLTQuNCAzLjYtOCA4LThoNDhjNC40IDAgOCAzLjYgOCA4djQ4ek0wIDM0NHYxNDRjMCA0LjQgMy42IDggOCA4aDEwMDhjNC40IDAgOC0zLjYgOC04VjM0NGMwLTQuNC0zLjYtOC04LThIOGMtNC40IDAtOCAzLjYtOCA4eiBtNzc0IDk2YzAgNC40LTMuNiA4LTggOEg0MjRjLTQuNCAwLTgtMy42LTgtOHYtNDhjMC00LjQgMy42LTggOC04aDM0MmM0LjQgMCA4IDMuNiA4IDh2NDh6IG0xMjIgMGMwIDQuNC0zLjYgOC04IDhoLTQ4Yy00LjQgMC04LTMuNi04LTh2LTQ4YzAtNC40IDMuNi04IDgtOGg0OGM0LjQgMCA4IDMuNiA4IDh2NDh6TTk2MCA5Nkg2NGMtMzUuMyAwLTY0IDI4LjctNjQgNjR2MTM2YzAgNC40IDMuNiA4IDggOGgxMDA4YzQuNCAwIDgtMy42IDgtOFYxNjBjMC0zNS4zLTI4LjctNjQtNjQtNjR6TTc3NCAyNDhjMCA0LjQtMy42IDgtOCA4SDQyNGMtNC40IDAtOC0zLjYtOC04di00OGMwLTQuNCAzLjYtOCA4LThoMzQyYzQuNCAwIDggMy42IDggOHY0OHogbTEyMiAwYzAgNC40LTMuNiA4LTggOGgtNDhjLTQuNCAwLTgtMy42LTgtOHYtNDhjMC00LjQgMy42LTggOC04aDQ4YzQuNCAwIDggMy42IDggOHY0OHoiLz48L3N2Zz4=;" vertex="1" parent="1">
          <mxGeometry x="295" y="100.25" width="115" height="115" as="geometry" />
        </mxCell>
        <mxCell id="Qu1Yj1PFPhfgV0YWFb1x-5" value="" style="shape=flexArrow;endArrow=classic;startArrow=none;html=1;rounded=0;fontSize=26;strokeColor=none;fillColor=#F19C99;startFill=0;" edge="1" parent="1">
          <mxGeometry width="100" height="100" relative="1" as="geometry">
            <mxPoint x="562" y="84.75" as="sourcePoint" />
            <mxPoint x="449" y="84.75" as="targetPoint" />
          </mxGeometry>
        </mxCell>
        <mxCell id="Qu1Yj1PFPhfgV0YWFb1x-6" value="" style="shape=image;verticalLabelPosition=bottom;labelBackgroundColor=default;verticalAlign=top;aspect=fixed;imageAspect=0;image=data:image/svg+xml,PHN2ZyB4bWxuczp4bGluaz0iaHR0cDovL3d3dy53My5vcmcvMTk5OS94bGluayIgeG1sbnM9Imh0dHA6Ly93d3cudzMub3JnLzIwMDAvc3ZnIiBoZWlnaHQ9IjIwMCIgd2lkdGg9IjIwMCIgdmVyc2lvbj0iMS4xIiB2aWV3Qm94PSIwIDAgMTAyNCAxMDI0IiBjbGFzcz0iaWNvbiI+PHBhdGggZmlsbD0iI0YxOUM5OSIgZD0iTTk2MCAyNTMuMTg0bC00NDgtMTkyLTQ0OCAxOTJ2NTQ3LjM5Mmw0NDggMTkwLjcyIDM4LjY4OC0xNi40OGg4LjE5MnYtMy40ODhMOTYwIDgwMC42MDhWMjUzLjE4NHogbS00NDggMTYzLjQyNGwtMTEzLjUzNi00OC4zMiAzMTguOTQ0LTE0Ny4yYzAuNzM2LTAuMzUyIDEuMjE2LTAuOTkyIDEuOTItMS40MDhsMTI3LjIzMiA1NC41MjhMNTEyIDQxNi42MDh6IG0xMjguNzA0LTIzMC42MjRsLTMyMS42OTYgMTQ4LjQ4LTE0MS41NjgtNjAuMjg4TDUxMiAxMzAuODE2bDEyOC43MDQgNTUuMTY4ek0xMjggMzIyLjY4OGwxMjggNTQuNDk2VjU3NmEzMiAzMiAwIDEgMCA2NCAwdi0xNzEuNTJsMC4wNjQtMC4wMzIgMTc0LjgxNiA3NC40MzJ2NDM1LjU4NEwxMjggNzU4LjI3MlYzMjIuNjg4eiBtNDMwLjg4IDU3OS4xMDRWNDY2LjIwOEw4OTYgMzIyLjY4OHY0MzUuNjE2bC0zMzcuMTIgMTQzLjQ4OHoiLz48L3N2Zz4=;" vertex="1" parent="1">
          <mxGeometry x="463" y="100.25" width="39.5" height="39.5" as="geometry" />
        </mxCell>
        <mxCell id="Qu1Yj1PFPhfgV0YWFb1x-7" value="&lt;font color=&quot;#ea6b66&quot;&gt;ICMP报文&lt;/font&gt;" style="text;html=1;strokeColor=none;fillColor=none;align=center;verticalAlign=middle;whiteSpace=wrap;rounded=0;" vertex="1" parent="1">
          <mxGeometry x="503" y="105" width="57" height="30" as="geometry" />
        </mxCell>
        <mxCell id="Qu1Yj1PFPhfgV0YWFb1x-8" value="" style="shape=image;verticalLabelPosition=bottom;verticalAlign=top;imageAspect=0;aspect=fixed;image=data:image/svg+xml,PHN2ZyB4bWxuczp4bGluaz0iaHR0cDovL3d3dy53My5vcmcvMTk5OS94bGluayIgeG1sbnM9Imh0dHA6Ly93d3cudzMub3JnLzIwMDAvc3ZnIiBoZWlnaHQ9IjIwMCIgd2lkdGg9IjIwMCIgdmVyc2lvbj0iMS4xIiB2aWV3Qm94PSIwIDAgMTAyNCAxMDI0IiBjbGFzcz0iaWNvbiI+PGRlZnM+PHN0eWxlIHR5cGU9InRleHQvY3NzIj5AZm9udC1mYWNlIHsgZm9udC1mYW1pbHk6IGZlZWRiYWNrLWljb25mb250OyBzcmM6IHVybCgiLy9hdC5hbGljZG4uY29tL3QvZm9udF8xMDMxMTU4X3U2OXc4eWh4ZHUud29mZjI/dD0xNjMwMDMzNzU5OTQ0IikgZm9ybWF0KCJ3b2ZmMiIpLCB1cmwoIi8vYXQuYWxpY2RuLmNvbS90L2ZvbnRfMTAzMTE1OF91Njl3OHloeGR1LndvZmY/dD0xNjMwMDMzNzU5OTQ0IikgZm9ybWF0KCJ3b2ZmIiksIHVybCgiLy9hdC5hbGljZG4uY29tL3QvZm9udF8xMDMxMTU4X3U2OXc4eWh4ZHUudHRmP3Q9MTYzMDAzMzc1OTk0NCIpIGZvcm1hdCgidHJ1ZXR5cGUiKTsgfSYjeGE7PC9zdHlsZT48L2RlZnM+PHBhdGggZmlsbD0iIzRBOTE5QiIgZD0iTTk2MCA5NDRINjRjLTM1LjI5NiAwLTY0LTI4LjcwNC02NC02NFY2NTZjMC0zNS4yOTYgMjguNzA0LTY0IDY0LTY0aDg5NmMzNS4yOTYgMCA2NCAyOC43MDQgNjQgNjR2MjI0YzAgMzUuMjk2LTI4LjcwNCA2NC02NCA2NHpNNjQgNjI0Yy0xNy42NDggMC0zMiAxNC4zNTItMzIgMzJ2MjI0YzAgMTcuNjQ4IDE0LjM1MiAzMiAzMiAzMmg4OTZjMTcuNjQ4IDAgMzItMTQuMzUyIDMyLTMyVjY1NmMwLTE3LjY0OC0xNC4zNTItMzItMzItMzJINjR6Ii8+PHBhdGggZmlsbD0iIzRBOTE5QiIgZD0iTTI0MCAxMDA4SDExMmExNiAxNiAwIDAgMS0xNi0xNnYtNjRhMTYgMTYgMCAwIDEgMTYtMTZoMTI4YTE2IDE2IDAgMCAxIDE2IDE2djY0YTE2IDE2IDAgMCAxLTE2IDE2eiBtLTExMi0zMmg5NnYtMzJIMTI4djMyek05MTIgMTAwOGgtMTI4YTE2IDE2IDAgMCAxLTE2LTE2di02NGExNiAxNiAwIDAgMSAxNi0xNmgxMjhhMTYgMTYgMCAwIDEgMTYgMTZ2NjRhMTYgMTYgMCAwIDEtMTYgMTZ6IG0tMTEyLTMyaDk2di0zMmgtOTZ2MzJ6TTg1Ni42NTYgNDYwLjE2YTE1Ljk4NCAxNS45ODQgMCAwIDEtNi44MTYtMzAuNDk2QzkxNi43NjggMzk4LjI3MiA5NjAgMzMwLjA5NiA5NjAgMjU2YzAtMTA1Ljg3Mi04Ni4xMjgtMTkyLTE5Mi0xOTJTNTc2IDE1MC4xMjggNTc2IDI1NmMwIDc0LjA4IDQzLjIzMiAxNDIuMjcyIDExMC4xNiAxNzMuNjY0YTE2IDE2IDAgMCAxLTEzLjYgMjguOTc2QzU5NC40OCA0MjEuOTg0IDU0NCAzNDIuNDQ4IDU0NCAyNTZjMC0xMjMuNTIgMTAwLjQ4LTIyNCAyMjQtMjI0czIyNCAxMDAuNDggMjI0IDIyNGMwIDg2LjQ0OC01MC40NjQgMTY1Ljk4NC0xMjguNTYgMjAyLjY0YTE1Ljk2OCAxNS45NjggMCAwIDEtNi43ODQgMS41MnoiLz48cGF0aCBmaWxsPSIjNEE5MTlCIiBkPSJNODUzLjI5NiAzODcuODRhMTYgMTYgMCAwIDEtOS40ODgtMjguODk2QTEyOC4yNCAxMjguMjQgMCAwIDAgODk2IDI1NmMwLTcwLjU3Ni01Ny40MjQtMTI4LTEyOC0xMjhzLTEyOCA1Ny40MjQtMTI4IDEyOGExMjguMjQgMTI4LjI0IDAgMCAwIDUyLjE5MiAxMDIuOTQ0IDE2IDE2IDAgMCAxLTE4Ljk0NCAyNS43OTJBMTYwLjMzNiAxNjAuMzM2IDAgMCAxIDYwOCAyNTZjMC04OC4yMjQgNzEuNzc2LTE2MCAxNjAtMTYwczE2MCA3MS43NzYgMTYwIDE2MGMwIDUwLjYwOC0yNC4zODQgOTguNzItNjUuMjQ4IDEyOC43MzZhMTUuOTIgMTUuOTIgMCAwIDEtOS40NCAzLjEwNHoiLz48cGF0aCBmaWxsPSIjNEE5MTlCIiBkPSJNODQ3LjY5NiAyNzYuNDhhMTYgMTYgMCAwIDEtMTUuNjY0LTE5LjM5MkM4MzIgMjIwLjY4OCA4MDMuMzEyIDE5MiA3NjggMTkycy02NCAyOC43MDQtNjQgNjRjMS44NzIgOC42NC0zLjYzMiAxNy42OTYtMTIuMjcyIDE5LjU2OC04LjU5MiAxLjg4OC0xNy4xODQtMy4wNC0xOS4wNTYtMTEuNjhDNjcyIDI2MC43MzYgNjcyIDI1Ny44ODggNjcyIDI1NmMwLTUyLjk0NCA0My4wNTYtOTYgOTYtOTZzOTYgNDMuMDU2IDk2IDk2YzAgMS45MDQgMCA0Ljc1Mi0wLjY3MiA3Ljg3MmExNi4wMTYgMTYuMDE2IDAgMCAxLTE1LjYzMiAxMi42MDh6Ii8+PHBhdGggZmlsbD0iIzRBOTE5QiIgZD0iTTgwMC4zMiA2MjRINzM2YTE1LjkzNiAxNS45MzYgMCAwIDEtMTEuNTY4LTQuOTYgMTUuOTA0IDE1LjkwNCAwIDAgMS00LjQxNi0xMS43NmwxNS4yNjQtMzM2LjAxNmEzMi43MzYgMzIuNzM2IDAgMCAxIDY1LjQyNCAwbDE1LjEzNiAzMzIuODMyQTE2IDE2IDAgMCAxIDgwMC4zMiA2MjR6IG0tNDcuNTItMzJoMzAuNDQ4bC0xNC41MTItMzE5LjI5Nkw3NTIuOCA1OTJ6TTE0NCA4MTZjLTI2LjQ2NCAwLTQ4LTIxLjUzNi00OC00OHMyMS41MzYtNDggNDgtNDggNDggMjEuNTM2IDQ4IDQ4LTIxLjUzNiA0OC00OCA0OHogbTAtNjRhMTYgMTYgMCAxIDAgMC4wMTYgMzIuMDE2QTE2IDE2IDAgMCAwIDE0NCA3NTJ6TTI3MiA4MTZjLTI2LjQ2NCAwLTQ4LTIxLjUzNi00OC00OHMyMS41MzYtNDggNDgtNDggNDggMjEuNTM2IDQ4IDQ4LTIxLjUzNiA0OC00OCA0OHogbTAtNjRhMTYgMTYgMCAxIDAgMC4wMTYgMzIuMDE2QTE2IDE2IDAgMCAwIDI3MiA3NTJ6TTQwMCA4MTZjLTI2LjQ2NCAwLTQ4LTIxLjUzNi00OC00OHMyMS41MzYtNDggNDgtNDggNDggMjEuNTM2IDQ4IDQ4LTIxLjUzNiA0OC00OCA0OHogbTAtNjRhMTYgMTYgMCAxIDAgMC4wMTYgMzIuMDE2QTE2IDE2IDAgMCAwIDQwMCA3NTJ6TTk0NCA4ODBjLTQuMTYgMC04LjMyLTEuNzYtMTEuMzYtNC42NEExNi44IDE2LjggMCAwIDEgOTI4IDg2NGMwLTQuMzIgMS43Ni04LjMyIDQuNjQtMTEuMzYgNS45Mi01LjkyIDE2LjgtNS45MiAyMi43MiAwIDIuODggMy4wNCA0LjY0IDcuMiA0LjY0IDExLjM2cy0xLjc2IDguMzItNC42NCAxMS4zNmMtMy4wNCAyLjg4LTcuMiA0LjY0LTExLjM2IDQuNjR6TTg4MCA4ODBjLTQuMTYgMC04LjMyLTEuNzYtMTEuMzYtNC42NC0yLjg4LTMuMDQtNC42NC03LjItNC42NC0xMS4zNnMxLjc2LTguMzIgNC42NC0xMS4zNmM1LjkyLTUuOTIgMTYuNjQtNS45MiAyMi43MiAwIDIuODggMy4wNCA0LjY0IDcuMiA0LjY0IDExLjM2cy0xLjc2IDguMzItNC42NCAxMS4zNmMtMy4wNCAzLjA0LTcuMiA0LjY0LTExLjM2IDQuNjR6TTgxNiA4ODBjLTQuMzIgMC04LjMyLTEuNzYtMTEuMzYtNC42NC0yLjg4LTMuMDQtNC42NC03LjItNC42NC0xMS4zNnMxLjc2LTguMzIgNC42NC0xMS4zNmM1LjkyLTUuOTIgMTYuOC01LjkyIDIyLjcyIDAgMi44OCAzLjA0IDQuNjQgNy4yIDQuNjQgMTEuMzZzLTEuNzYgOC4zMi00LjY0IDExLjM2Yy0zLjA0IDIuODgtNy4yIDQuNjQtMTEuMzYgNC42NHpNNzUyIDg4MGMtNC4xNiAwLTguMzItMS43Ni0xMS4zNi00LjY0LTIuODgtMy4wNC00LjY0LTcuMi00LjY0LTExLjM2czEuNzYtOC4zMiA0LjY0LTExLjM2YzYuMDgtNS45MiAxNi42NC01LjkyIDIyLjcyIDAgMi44OCAzLjA0IDQuNjQgNy4yIDQuNjQgMTEuMzZzLTEuNzYgOC4zMi00LjY0IDExLjM2Yy0zLjA0IDIuODgtNy4yIDQuNjQtMTEuMzYgNC42NHpNOTQ0IDgxNmMtNC4xNiAwLTguMzItMS43Ni0xMS4zNi00LjY0QTE2LjggMTYuOCAwIDAgMSA5MjggODAwYzAtNC4zMiAxLjc2LTguMzIgNC42NC0xMS4zNiA1LjkyLTUuOTIgMTYuOC01LjkyIDIyLjcyIDAgMi44OCAzLjA0IDQuNjQgNy4yIDQuNjQgMTEuMzZzLTEuNzYgOC4zMi00LjY0IDExLjM2Yy0zLjA0IDIuODgtNy4yIDQuNjQtMTEuMzYgNC42NHpNODgwIDgxNmMtNC4xNiAwLTguMzItMS43Ni0xMS4zNi00LjY0QTE2LjggMTYuOCAwIDAgMSA4NjQgODAwYzAtNC4zMiAxLjc2LTguMzIgNC42NC0xMS4zNiA1LjkyLTUuOTIgMTYuNjQtNS45MiAyMi43MiAwIDIuODggMy4wNCA0LjY0IDcuMiA0LjY0IDExLjM2cy0xLjc2IDguMzItNC42NCAxMS4zNmMtMy4wNCAyLjg4LTcuMiA0LjY0LTExLjM2IDQuNjR6TTgxNiA4MTZjLTQuMTYgMC04LjMyLTEuNzYtMTEuMzYtNC42NC0yLjg4LTMuMDQtNC42NC03LjItNC42NC0xMS4zNnMxLjc2LTguMzIgNC42NC0xMS4zNmM1LjkyLTUuOTIgMTYuOC01LjkyIDIyLjcyIDAgMi44OCAzLjA0IDQuNjQgNy4yIDQuNjQgMTEuMzZzLTEuNzYgOC4zMi00LjY0IDExLjM2Yy0zLjA0IDIuODgtNy4yIDQuNjQtMTEuMzYgNC42NHpNOTQ0IDc1MmMtNC4xNiAwLTguMzItMS43Ni0xMS4zNi00LjY0QTE2LjggMTYuOCAwIDAgMSA5MjggNzM2YzAtNC4zMiAxLjc2LTguMzIgNC42NC0xMS4zNiA1LjkyLTUuOTIgMTYuOC01LjkyIDIyLjcyIDAgMi44OCAzLjA0IDQuNjQgNy4yIDQuNjQgMTEuMzZzLTEuNzYgOC4zMi00LjY0IDExLjM2Yy0zLjA0IDIuODgtNy4yIDQuNjQtMTEuMzYgNC42NHpNODgwIDc1MmMtNC4xNiAwLTguMzItMS43Ni0xMS4zNi00LjY0QTE2LjggMTYuOCAwIDAgMSA4NjQgNzM2YzAtNC4zMiAxLjc2LTguMzIgNC42NC0xMS4zNiA1LjkyLTUuOTIgMTYuNjQtNS45MiAyMi43MiAwIDIuODggMy4wNCA0LjY0IDcuMiA0LjY0IDExLjM2cy0xLjc2IDguMzItNC42NCAxMS4zNmMtMy4wNCAyLjg4LTcuMiA0LjY0LTExLjM2IDQuNjR6TTk0NCA2ODhjLTQuMTYgMC04LjMyLTEuNzYtMTEuMzYtNC42NGExNi4xNiAxNi4xNiAwIDAgMSAwLTIyLjcyYzUuOTItNS45MiAxNi44LTUuOTIgMjIuNzIgMCAyLjg4IDMuMDQgNC42NCA3LjA0IDQuNjQgMTEuMzYgMCA0LjE2LTEuNzYgOC4zMi00LjY0IDExLjM2LTMuMDQgMi44OC03LjIgNC42NC0xMS4zNiA0LjY0eiIvPjwvc3ZnPg==" vertex="1" parent="1">
          <mxGeometry x="580" y="37" width="71" height="71" as="geometry" />
        </mxCell>
        <mxCell id="Qu1Yj1PFPhfgV0YWFb1x-9" value="" style="shape=flexArrow;endArrow=classic;startArrow=none;html=1;rounded=0;fontSize=26;strokeColor=none;fillColor=#F19C99;startFill=0;" edge="1" parent="1">
          <mxGeometry width="100" height="100" relative="1" as="geometry">
            <mxPoint x="562" y="241.75" as="sourcePoint" />
            <mxPoint x="449" y="241.75" as="targetPoint" />
          </mxGeometry>
        </mxCell>
        <mxCell id="Qu1Yj1PFPhfgV0YWFb1x-10" value="" style="shape=image;verticalLabelPosition=bottom;labelBackgroundColor=default;verticalAlign=top;aspect=fixed;imageAspect=0;image=data:image/svg+xml,PHN2ZyB4bWxuczp4bGluaz0iaHR0cDovL3d3dy53My5vcmcvMTk5OS94bGluayIgeG1sbnM9Imh0dHA6Ly93d3cudzMub3JnLzIwMDAvc3ZnIiBoZWlnaHQ9IjIwMCIgd2lkdGg9IjIwMCIgdmVyc2lvbj0iMS4xIiB2aWV3Qm94PSIwIDAgMTAyNCAxMDI0IiBjbGFzcz0iaWNvbiI+PHBhdGggZmlsbD0iI0YxOUM5OSIgZD0iTTk2MCAyNTMuMTg0bC00NDgtMTkyLTQ0OCAxOTJ2NTQ3LjM5Mmw0NDggMTkwLjcyIDM4LjY4OC0xNi40OGg4LjE5MnYtMy40ODhMOTYwIDgwMC42MDhWMjUzLjE4NHogbS00NDggMTYzLjQyNGwtMTEzLjUzNi00OC4zMiAzMTguOTQ0LTE0Ny4yYzAuNzM2LTAuMzUyIDEuMjE2LTAuOTkyIDEuOTItMS40MDhsMTI3LjIzMiA1NC41MjhMNTEyIDQxNi42MDh6IG0xMjguNzA0LTIzMC42MjRsLTMyMS42OTYgMTQ4LjQ4LTE0MS41NjgtNjAuMjg4TDUxMiAxMzAuODE2bDEyOC43MDQgNTUuMTY4ek0xMjggMzIyLjY4OGwxMjggNTQuNDk2VjU3NmEzMiAzMiAwIDEgMCA2NCAwdi0xNzEuNTJsMC4wNjQtMC4wMzIgMTc0LjgxNiA3NC40MzJ2NDM1LjU4NEwxMjggNzU4LjI3MlYzMjIuNjg4eiBtNDMwLjg4IDU3OS4xMDRWNDY2LjIwOEw4OTYgMzIyLjY4OHY0MzUuNjE2bC0zMzcuMTIgMTQzLjQ4OHoiLz48L3N2Zz4=;" vertex="1" parent="1">
          <mxGeometry x="463" y="257.25" width="39.5" height="39.5" as="geometry" />
        </mxCell>
        <mxCell id="Qu1Yj1PFPhfgV0YWFb1x-11" value="&lt;font color=&quot;#ea6b66&quot;&gt;ICMP报文&lt;/font&gt;" style="text;html=1;strokeColor=none;fillColor=none;align=center;verticalAlign=middle;whiteSpace=wrap;rounded=0;" vertex="1" parent="1">
          <mxGeometry x="503" y="262" width="57" height="30" as="geometry" />
        </mxCell>
        <mxCell id="Qu1Yj1PFPhfgV0YWFb1x-12" value="" style="shape=image;verticalLabelPosition=bottom;verticalAlign=top;imageAspect=0;aspect=fixed;image=data:image/svg+xml,PHN2ZyB4bWxuczp4bGluaz0iaHR0cDovL3d3dy53My5vcmcvMTk5OS94bGluayIgeG1sbnM9Imh0dHA6Ly93d3cudzMub3JnLzIwMDAvc3ZnIiBoZWlnaHQ9IjIwMCIgd2lkdGg9IjIwMCIgdmVyc2lvbj0iMS4xIiB2aWV3Qm94PSIwIDAgMTAyNCAxMDI0IiBjbGFzcz0iaWNvbiI+PGRlZnM+PHN0eWxlIHR5cGU9InRleHQvY3NzIj5AZm9udC1mYWNlIHsgZm9udC1mYW1pbHk6IGZlZWRiYWNrLWljb25mb250OyBzcmM6IHVybCgiLy9hdC5hbGljZG4uY29tL3QvZm9udF8xMDMxMTU4X3U2OXc4eWh4ZHUud29mZjI/dD0xNjMwMDMzNzU5OTQ0IikgZm9ybWF0KCJ3b2ZmMiIpLCB1cmwoIi8vYXQuYWxpY2RuLmNvbS90L2ZvbnRfMTAzMTE1OF91Njl3OHloeGR1LndvZmY/dD0xNjMwMDMzNzU5OTQ0IikgZm9ybWF0KCJ3b2ZmIiksIHVybCgiLy9hdC5hbGljZG4uY29tL3QvZm9udF8xMDMxMTU4X3U2OXc4eWh4ZHUudHRmP3Q9MTYzMDAzMzc1OTk0NCIpIGZvcm1hdCgidHJ1ZXR5cGUiKTsgfSYjeGE7PC9zdHlsZT48L2RlZnM+PHBhdGggZmlsbD0iIzRBOTE5QiIgZD0iTTk2MCA5NDRINjRjLTM1LjI5NiAwLTY0LTI4LjcwNC02NC02NFY2NTZjMC0zNS4yOTYgMjguNzA0LTY0IDY0LTY0aDg5NmMzNS4yOTYgMCA2NCAyOC43MDQgNjQgNjR2MjI0YzAgMzUuMjk2LTI4LjcwNCA2NC02NCA2NHpNNjQgNjI0Yy0xNy42NDggMC0zMiAxNC4zNTItMzIgMzJ2MjI0YzAgMTcuNjQ4IDE0LjM1MiAzMiAzMiAzMmg4OTZjMTcuNjQ4IDAgMzItMTQuMzUyIDMyLTMyVjY1NmMwLTE3LjY0OC0xNC4zNTItMzItMzItMzJINjR6Ii8+PHBhdGggZmlsbD0iIzRBOTE5QiIgZD0iTTI0MCAxMDA4SDExMmExNiAxNiAwIDAgMS0xNi0xNnYtNjRhMTYgMTYgMCAwIDEgMTYtMTZoMTI4YTE2IDE2IDAgMCAxIDE2IDE2djY0YTE2IDE2IDAgMCAxLTE2IDE2eiBtLTExMi0zMmg5NnYtMzJIMTI4djMyek05MTIgMTAwOGgtMTI4YTE2IDE2IDAgMCAxLTE2LTE2di02NGExNiAxNiAwIDAgMSAxNi0xNmgxMjhhMTYgMTYgMCAwIDEgMTYgMTZ2NjRhMTYgMTYgMCAwIDEtMTYgMTZ6IG0tMTEyLTMyaDk2di0zMmgtOTZ2MzJ6TTg1Ni42NTYgNDYwLjE2YTE1Ljk4NCAxNS45ODQgMCAwIDEtNi44MTYtMzAuNDk2QzkxNi43NjggMzk4LjI3MiA5NjAgMzMwLjA5NiA5NjAgMjU2YzAtMTA1Ljg3Mi04Ni4xMjgtMTkyLTE5Mi0xOTJTNTc2IDE1MC4xMjggNTc2IDI1NmMwIDc0LjA4IDQzLjIzMiAxNDIuMjcyIDExMC4xNiAxNzMuNjY0YTE2IDE2IDAgMCAxLTEzLjYgMjguOTc2QzU5NC40OCA0MjEuOTg0IDU0NCAzNDIuNDQ4IDU0NCAyNTZjMC0xMjMuNTIgMTAwLjQ4LTIyNCAyMjQtMjI0czIyNCAxMDAuNDggMjI0IDIyNGMwIDg2LjQ0OC01MC40NjQgMTY1Ljk4NC0xMjguNTYgMjAyLjY0YTE1Ljk2OCAxNS45NjggMCAwIDEtNi43ODQgMS41MnoiLz48cGF0aCBmaWxsPSIjNEE5MTlCIiBkPSJNODUzLjI5NiAzODcuODRhMTYgMTYgMCAwIDEtOS40ODgtMjguODk2QTEyOC4yNCAxMjguMjQgMCAwIDAgODk2IDI1NmMwLTcwLjU3Ni01Ny40MjQtMTI4LTEyOC0xMjhzLTEyOCA1Ny40MjQtMTI4IDEyOGExMjguMjQgMTI4LjI0IDAgMCAwIDUyLjE5MiAxMDIuOTQ0IDE2IDE2IDAgMCAxLTE4Ljk0NCAyNS43OTJBMTYwLjMzNiAxNjAuMzM2IDAgMCAxIDYwOCAyNTZjMC04OC4yMjQgNzEuNzc2LTE2MCAxNjAtMTYwczE2MCA3MS43NzYgMTYwIDE2MGMwIDUwLjYwOC0yNC4zODQgOTguNzItNjUuMjQ4IDEyOC43MzZhMTUuOTIgMTUuOTIgMCAwIDEtOS40NCAzLjEwNHoiLz48cGF0aCBmaWxsPSIjNEE5MTlCIiBkPSJNODQ3LjY5NiAyNzYuNDhhMTYgMTYgMCAwIDEtMTUuNjY0LTE5LjM5MkM4MzIgMjIwLjY4OCA4MDMuMzEyIDE5MiA3NjggMTkycy02NCAyOC43MDQtNjQgNjRjMS44NzIgOC42NC0zLjYzMiAxNy42OTYtMTIuMjcyIDE5LjU2OC04LjU5MiAxLjg4OC0xNy4xODQtMy4wNC0xOS4wNTYtMTEuNjhDNjcyIDI2MC43MzYgNjcyIDI1Ny44ODggNjcyIDI1NmMwLTUyLjk0NCA0My4wNTYtOTYgOTYtOTZzOTYgNDMuMDU2IDk2IDk2YzAgMS45MDQgMCA0Ljc1Mi0wLjY3MiA3Ljg3MmExNi4wMTYgMTYuMDE2IDAgMCAxLTE1LjYzMiAxMi42MDh6Ii8+PHBhdGggZmlsbD0iIzRBOTE5QiIgZD0iTTgwMC4zMiA2MjRINzM2YTE1LjkzNiAxNS45MzYgMCAwIDEtMTEuNTY4LTQuOTYgMTUuOTA0IDE1LjkwNCAwIDAgMS00LjQxNi0xMS43NmwxNS4yNjQtMzM2LjAxNmEzMi43MzYgMzIuNzM2IDAgMCAxIDY1LjQyNCAwbDE1LjEzNiAzMzIuODMyQTE2IDE2IDAgMCAxIDgwMC4zMiA2MjR6IG0tNDcuNTItMzJoMzAuNDQ4bC0xNC41MTItMzE5LjI5Nkw3NTIuOCA1OTJ6TTE0NCA4MTZjLTI2LjQ2NCAwLTQ4LTIxLjUzNi00OC00OHMyMS41MzYtNDggNDgtNDggNDggMjEuNTM2IDQ4IDQ4LTIxLjUzNiA0OC00OCA0OHogbTAtNjRhMTYgMTYgMCAxIDAgMC4wMTYgMzIuMDE2QTE2IDE2IDAgMCAwIDE0NCA3NTJ6TTI3MiA4MTZjLTI2LjQ2NCAwLTQ4LTIxLjUzNi00OC00OHMyMS41MzYtNDggNDgtNDggNDggMjEuNTM2IDQ4IDQ4LTIxLjUzNiA0OC00OCA0OHogbTAtNjRhMTYgMTYgMCAxIDAgMC4wMTYgMzIuMDE2QTE2IDE2IDAgMCAwIDI3MiA3NTJ6TTQwMCA4MTZjLTI2LjQ2NCAwLTQ4LTIxLjUzNi00OC00OHMyMS41MzYtNDggNDgtNDggNDggMjEuNTM2IDQ4IDQ4LTIxLjUzNiA0OC00OCA0OHogbTAtNjRhMTYgMTYgMCAxIDAgMC4wMTYgMzIuMDE2QTE2IDE2IDAgMCAwIDQwMCA3NTJ6TTk0NCA4ODBjLTQuMTYgMC04LjMyLTEuNzYtMTEuMzYtNC42NEExNi44IDE2LjggMCAwIDEgOTI4IDg2NGMwLTQuMzIgMS43Ni04LjMyIDQuNjQtMTEuMzYgNS45Mi01LjkyIDE2LjgtNS45MiAyMi43MiAwIDIuODggMy4wNCA0LjY0IDcuMiA0LjY0IDExLjM2cy0xLjc2IDguMzItNC42NCAxMS4zNmMtMy4wNCAyLjg4LTcuMiA0LjY0LTExLjM2IDQuNjR6TTg4MCA4ODBjLTQuMTYgMC04LjMyLTEuNzYtMTEuMzYtNC42NC0yLjg4LTMuMDQtNC42NC03LjItNC42NC0xMS4zNnMxLjc2LTguMzIgNC42NC0xMS4zNmM1LjkyLTUuOTIgMTYuNjQtNS45MiAyMi43MiAwIDIuODggMy4wNCA0LjY0IDcuMiA0LjY0IDExLjM2cy0xLjc2IDguMzItNC42NCAxMS4zNmMtMy4wNCAzLjA0LTcuMiA0LjY0LTExLjM2IDQuNjR6TTgxNiA4ODBjLTQuMzIgMC04LjMyLTEuNzYtMTEuMzYtNC42NC0yLjg4LTMuMDQtNC42NC03LjItNC42NC0xMS4zNnMxLjc2LTguMzIgNC42NC0xMS4zNmM1LjkyLTUuOTIgMTYuOC01LjkyIDIyLjcyIDAgMi44OCAzLjA0IDQuNjQgNy4yIDQuNjQgMTEuMzZzLTEuNzYgOC4zMi00LjY0IDExLjM2Yy0zLjA0IDIuODgtNy4yIDQuNjQtMTEuMzYgNC42NHpNNzUyIDg4MGMtNC4xNiAwLTguMzItMS43Ni0xMS4zNi00LjY0LTIuODgtMy4wNC00LjY0LTcuMi00LjY0LTExLjM2czEuNzYtOC4zMiA0LjY0LTExLjM2YzYuMDgtNS45MiAxNi42NC01LjkyIDIyLjcyIDAgMi44OCAzLjA0IDQuNjQgNy4yIDQuNjQgMTEuMzZzLTEuNzYgOC4zMi00LjY0IDExLjM2Yy0zLjA0IDIuODgtNy4yIDQuNjQtMTEuMzYgNC42NHpNOTQ0IDgxNmMtNC4xNiAwLTguMzItMS43Ni0xMS4zNi00LjY0QTE2LjggMTYuOCAwIDAgMSA5MjggODAwYzAtNC4zMiAxLjc2LTguMzIgNC42NC0xMS4zNiA1LjkyLTUuOTIgMTYuOC01LjkyIDIyLjcyIDAgMi44OCAzLjA0IDQuNjQgNy4yIDQuNjQgMTEuMzZzLTEuNzYgOC4zMi00LjY0IDExLjM2Yy0zLjA0IDIuODgtNy4yIDQuNjQtMTEuMzYgNC42NHpNODgwIDgxNmMtNC4xNiAwLTguMzItMS43Ni0xMS4zNi00LjY0QTE2LjggMTYuOCAwIDAgMSA4NjQgODAwYzAtNC4zMiAxLjc2LTguMzIgNC42NC0xMS4zNiA1LjkyLTUuOTIgMTYuNjQtNS45MiAyMi43MiAwIDIuODggMy4wNCA0LjY0IDcuMiA0LjY0IDExLjM2cy0xLjc2IDguMzItNC42NCAxMS4zNmMtMy4wNCAyLjg4LTcuMiA0LjY0LTExLjM2IDQuNjR6TTgxNiA4MTZjLTQuMTYgMC04LjMyLTEuNzYtMTEuMzYtNC42NC0yLjg4LTMuMDQtNC42NC03LjItNC42NC0xMS4zNnMxLjc2LTguMzIgNC42NC0xMS4zNmM1LjkyLTUuOTIgMTYuOC01LjkyIDIyLjcyIDAgMi44OCAzLjA0IDQuNjQgNy4yIDQuNjQgMTEuMzZzLTEuNzYgOC4zMi00LjY0IDExLjM2Yy0zLjA0IDIuODgtNy4yIDQuNjQtMTEuMzYgNC42NHpNOTQ0IDc1MmMtNC4xNiAwLTguMzItMS43Ni0xMS4zNi00LjY0QTE2LjggMTYuOCAwIDAgMSA5MjggNzM2YzAtNC4zMiAxLjc2LTguMzIgNC42NC0xMS4zNiA1LjkyLTUuOTIgMTYuOC01LjkyIDIyLjcyIDAgMi44OCAzLjA0IDQuNjQgNy4yIDQuNjQgMTEuMzZzLTEuNzYgOC4zMi00LjY0IDExLjM2Yy0zLjA0IDIuODgtNy4yIDQuNjQtMTEuMzYgNC42NHpNODgwIDc1MmMtNC4xNiAwLTguMzItMS43Ni0xMS4zNi00LjY0QTE2LjggMTYuOCAwIDAgMSA4NjQgNzM2YzAtNC4zMiAxLjc2LTguMzIgNC42NC0xMS4zNiA1LjkyLTUuOTIgMTYuNjQtNS45MiAyMi43MiAwIDIuODggMy4wNCA0LjY0IDcuMiA0LjY0IDExLjM2cy0xLjc2IDguMzItNC42NCAxMS4zNmMtMy4wNCAyLjg4LTcuMiA0LjY0LTExLjM2IDQuNjR6TTk0NCA2ODhjLTQuMTYgMC04LjMyLTEuNzYtMTEuMzYtNC42NGExNi4xNiAxNi4xNiAwIDAgMSAwLTIyLjcyYzUuOTItNS45MiAxNi44LTUuOTIgMjIuNzIgMCAyLjg4IDMuMDQgNC42NCA3LjA0IDQuNjQgMTEuMzYgMCA0LjE2LTEuNzYgOC4zMi00LjY0IDExLjM2LTMuMDQgMi44OC03LjIgNC42NC0xMS4zNiA0LjY0eiIvPjwvc3ZnPg==" vertex="1" parent="1">
          <mxGeometry x="580" y="191" width="71" height="71" as="geometry" />
        </mxCell>
        <mxCell id="Qu1Yj1PFPhfgV0YWFb1x-13" value="" style="shape=image;verticalLabelPosition=bottom;labelBackgroundColor=default;verticalAlign=top;aspect=fixed;imageAspect=0;image=data:image/svg+xml,PHN2ZyB4bWxuczp4bGluaz0iaHR0cDovL3d3dy53My5vcmcvMTk5OS94bGluayIgeG1sbnM9Imh0dHA6Ly93d3cudzMub3JnLzIwMDAvc3ZnIiBoZWlnaHQ9IjIwMCIgd2lkdGg9IjI0Mi43NzM0Mzc1IiB2ZXJzaW9uPSIxLjEiIHZpZXdCb3g9IjAgMCAxMjQzIDEwMjQiIGNsYXNzPSJpY29uIj48cGF0aCBkPSJNODQwLjcyNDI0NiA5NDMuMzcyODc1SDQwMy4xMzU2MjNhMzUuNTE4NTU3IDM1LjUxODU1NyAwIDAgMC0zNS41MTg1NTcgMzIuNjc3MDczaDUwOS4zMzYxMDhhMzUuNTE4NTU3IDM1LjUxODU1NyAwIDAgMC0zNS41MTg1NTctMzIuNjc3MDczeiBtMCAwIi8+PHBhdGggZmlsbD0iI0FBMUQxRCIgZD0iTTYzNi4xMzczNTcgNzQxLjk4MjY1N2EyNC41MDc4MDQgMjQuNTA3ODA0IDAgMCAwIDEzLjg1MjIzNyAyMS42NjYzMiAzMC4xOTA3NzMgMzAuMTkwNzczIDAgMCAwIDI4LjA1OTY2IDAgMjQuNTA3ODA0IDI0LjUwNzgwNCAwIDAgMCAxMy44NTIyMzgtMjEuNjY2MzIgMjUuMjE4MTc2IDI1LjIxODE3NiAwIDAgMC0xMy44NTIyMzgtMjIuMDIxNTA1IDMyLjMyMTg4NyAzMi4zMjE4ODcgMCAwIDAtMjguMDU5NjYgMCAyNS4yMTgxNzYgMjUuMjE4MTc2IDAgMCAwLTEzLjg1MjIzNyAyMi4wMjE1MDV6IG0wIDBNNjEzLjc2MDY2NiA4MDUuNTYwODc0aDE2LjMzODUzNmE0Ljk3MjU5OCA0Ljk3MjU5OCAwIDAgMCA0Ljk3MjU5OC03LjQ1ODg5N2wtOC4xNjkyNjgtMTQuNTYyNjA4YTUuMzI3Nzg0IDUuMzI3Nzg0IDAgMCAwLTkuOTQ1MTk2IDBsLTguMTY5MjY4IDE0LjU2MjYwOGE1LjMyNzc4NCA1LjMyNzc4NCAwIDAgMCA0Ljk3MjU5OCA3LjQ1ODg5N3ogbTAgMCIvPjxwYXRoIGZpbGw9IiNBQTFEMUQiIGQ9Ik00MzkuMzY0NTUxIDkyNy4zODk1MjVoMzY1LjEzMDc2NmE1My4yNzc4MzYgNTMuMjc3ODM2IDAgMCAwIDU1LjA1Mzc2NC00Ny4yMzk2ODFsMTcuMDQ4OTA3LTI1Mi44OTIxMjZhNTEuODU3MDkzIDUxLjg1NzA5MyAwIDAgMC01NC42OTg1NzgtNTIuOTIyNjVINDIyLjMxNTY0M2E1Mi4yMTIyNzkgNTIuMjEyMjc5IDAgMCAwLTU1LjA1Mzc2MyA1Mi45MjI2NWwxNy4wNDg5MDcgMjUyLjg5MjEyNmE1My4yNzc4MzYgNTMuMjc3ODM2IDAgMCAwIDU1LjA1Mzc2NCA0Ny4yMzk2ODF6IG03OS4yMDYzODItMjkuNDgwNDAzYTI1LjkyODU0NyAyNS45Mjg1NDcgMCAwIDEtMzUuNTE4NTU3IDAgMjAuNjAwNzYzIDIwLjYwMDc2MyAwIDAgMS02Ljc0ODUyNi0xOC40Njk2NDkgMjUuMjE4MTc2IDI1LjIxODE3NiAwIDAgMS0yMC4yNDU1NzctNi4wMzgxNTUgMjAuOTU1OTQ5IDIwLjk1NTk0OSAwIDAgMSAwLTMxLjI1NjMzIDI2LjI4MzczMiAyNi4yODM3MzIgMCAwIDEgMzIuMzIxODg3IDBsMzUuNTE4NTU3LTMyLjMyMTg4NyAxMC4zMDAzODEgNC42MTc0MTJoMy41NTE4NTZ2MTIuMDc2MzFhMjQuODYyOTkgMjQuODYyOTkgMCAwIDAgNy44MTQwODIgMTcuNDA0MDkzbC0yNi45OTQxMDMgMjQuNTA3ODA0YTIwLjYwMDc2MyAyMC42MDA3NjMgMCAwIDEtMS43NzU5MjggMjkuNDgwNDAyeiBtMjY3LjgwOTkyLTI0LjUwNzgwNGEyNC4xNTI2MTkgMjQuMTUyNjE5IDAgMCAxLTE5Ljg5MDM5MiA2LjAzODE1NSAyMC45NTU5NDkgMjAuOTU1OTQ5IDAgMCAxLTcuMTAzNzExIDE4LjQ2OTY0OSAyNS45Mjg1NDcgMjUuOTI4NTQ3IDAgMCAxLTM1LjUxODU1NyAwIDIwLjk1NTk0OSAyMC45NTU5NDkgMCAwIDEtMS43NzU5MjgtMjkuNDgwNDAybC0yNi45OTQxMDMtMjQuNTA3ODA0YTI0Ljg2Mjk5IDI0Ljg2Mjk5IDAgMCAwIDcuODE0MDgyLTE3LjQwNDA5M3YtMTIuMDc2MzFoMy41NTE4NTZsMTAuNjU1NTY3LTQuNjE3NDEyIDM1LjUxODU1NyAzMi4zMjE4ODdhMjYuMjgzNzMyIDI2LjI4MzczMiAwIDAgMSAzMi4zMjE4ODcgMCAyMC45NTU5NDkgMjAuOTU1OTQ5IDAgMCAxIDAgMzEuMjU2MzN6TTcyNS4yODg5MzUgNjAzLjgxNTQ3YTI1LjkyODU0NyAyNS45Mjg1NDcgMCAwIDEgMzUuNTE4NTU3IDAgMjAuMjQ1NTc4IDIwLjI0NTU3OCAwIDAgMSA2Ljc0ODUyNiAxOC4xMTQ0NjQgMjYuMjgzNzMyIDI2LjI4MzczMiAwIDAgMSAyMC4yNDU1NzggNi4zOTMzNCAyMC42MDA3NjMgMjAuNjAwNzYzIDAgMCAxIDAgMzAuOTAxMTQ1IDI1LjU3MzM2MSAyNS41NzMzNjEgMCAwIDEtMzIuMzIxODg3IDBsLTM1LjUxODU1NyAzMS45NjY3MDFhMTE1LjQzNTMxIDExNS40MzUzMSAwIDAgMC0zMi4zMjE4ODctMjUuOTI4NTQ2bDM1LjUxODU1Ny0zMy4zODc0NDRhMjAuNjAwNzYzIDIwLjYwMDc2MyAwIDAgMSAxLjc3NTkyOC0yOS40ODA0MDJ6IG0wIDE1OC4wNTc1NzlhMzEuMjU2MzMgMzEuMjU2MzMgMCAwIDEtMjUuOTI4NTQ3IDM1LjUxODU1NyAxMDYuNTU1NjcxIDEwNi41NTU2NzEgMCAwIDAtMTUuMjcyOTc5IDYuNzQ4NTI2djIyLjczMTg3NmE4LjUyNDQ1NCA4LjUyNDQ1NCAwIDAgMS05LjIzNDgyNSA4LjE2OTI2OGgtMTA2LjU1NTY3MWE4Ljg3OTYzOSA4Ljg3OTYzOSAwIDAgMS05LjIzNDgyNS04LjE2OTI2OHYtMjIuNzMxODc2YTkxLjYzNzg3NyA5MS42Mzc4NzcgMCAwIDAtMTUuMjcyOTc5LTYuNzQ4NTI2IDMwLjkwMTE0NSAzMC45MDExNDUgMCAwIDEtMjUuNTczMzYyLTM1LjUxODU1NyAxMDAuMTYyMzMxIDEwMC4xNjIzMzEgMCAwIDEgMTA0LjQyNDU1OC05NC44MzQ1NDcgMTAwLjE2MjMzMSAxMDAuMTYyMzMxIDAgMCAxIDEwNC43Nzk3NDQgOTQuODM0NTQ3eiBtLTI2OS4yMzA2NjItMTMzLjU0OTc3NWEyNS41NzMzNjEgMjUuNTczMzYxIDAgMCAxIDIwLjI0NTU3Ny02LjM5MzM0IDIwLjI0NTU3OCAyMC4yNDU1NzggMCAwIDEgNi43NDg1MjYtMTguMTE0NDY0IDI1LjIxODE3NiAyNS4yMTgxNzYgMCAwIDEgMzUuNTE4NTU3IDAgMjAuMjQ1NTc4IDIwLjI0NTU3OCAwIDAgMSAxLjc3NTkyOCAyOS4xMjUyMTdsMzUuNTE4NTU3IDMzLjc0MjYyOWExMTUuNDM1MzEgMTE1LjQzNTMxIDAgMCAwLTMyLjMyMTg4NyAyNS45Mjg1NDdsLTM1LjUxODU1Ny0zMS45NjY3MDJhMjUuNTczMzYxIDI1LjU3MzM2MSAwIDAgMS0zMi4zMjE4ODcgMCAyMC42MDA3NjMgMjAuNjAwNzYzIDAgMCAxIDAtMzAuOTAxMTQ0eiBtMCAwIi8+PHBhdGggZmlsbD0iI0FBMUQxRCIgZD0iTTU1Mi4zMTM1NjIgNzQxLjk4MjY1N2EyNy43MDQ0NzUgMjcuNzA0NDc1IDAgMSAwIDI3LjcwNDQ3NS0yNS4yMTgxNzYgMjYuNjM4OTE4IDI2LjYzODkxOCAwIDAgMC0yNy43MDQ0NzUgMjUuMjE4MTc2eiBtMCAwIi8+PHBhdGggZD0iTTEwNDEuMDQ4OTA3IDczOC4wNzU2MTZsLTY2LjQxOTcwMS0xOTMuMjIwOTUxYTIzMy43MTIxMDUgMjMzLjcxMjEwNSAwIDAgMC05MS42Mzc4NzgtMTA5LjM5NzE1NUE4Mi40MDMwNTIgODIuNDAzMDUyIDAgMCAwIDkyMy40ODI0ODQgMzY5Ljc0ODE3OWE2OC45MDYwMDEgNjguOTA2MDAxIDAgMCAwLTE1LjYyODE2Ni00MS45MTE4OTdsLTQuNjE3NDEyLTUuMzI3Nzg0LTE2Ny4yOTI0MDQtMjIxLjk5MDk4MmExNDIuMDc0MjI4IDE0Mi4wNzQyMjggMCAwIDAtMTExLjE3MzA4My01Mi41Njc0NjRoLTMuMTk2NjdhMTM3LjgxMjAwMSAxMzcuODEyMDAxIDAgMCAwLTEwOC4zMzE2IDUwLjc5MTUzN2wtMTc3LjU5Mjc4NSAyMjguMDI5MTM2QTY3LjQ4NTI1OCA2Ny40ODUyNTggMCAwIDAgMzE5LjY2NzAxNCAzNjkuNzQ4MTc5YTgwLjYyNzEyNSA4MC42MjcxMjUgMCAwIDAgNDEuOTExODk3IDY1LjcwOTMzMSAyMzMuNzEyMTA1IDIzMy43MTIxMDUgMCAwIDAtOTIuMzQ4MjQ4IDExMC4xMDc1MjZsLTY3LjEzMDA3MyAxOTIuNTEwNThhMTI3LjE1NjQzNCAxMjcuMTU2NDM0IDAgMCAwIDEzMC4zNTMxMDQgMTYzLjc0MDU0OGgzMy4zODc0NDRhNDUuNDYzNzUzIDQ1LjQ2Mzc1MyAwIDAgMS0yLjQ4NjI5OS0xMi4wNzYzMWwtMTguNDY5NjUtMjc1LjI2ODgxN2E1Ni44Mjk2OTEgNTYuODI5NjkxIDAgMCAxIDU5LjY3MTE3Ni01Ny44OTUyNDhoNDM1LjEwMjMyNGE1Ni44Mjk2OTEgNTYuODI5NjkxIDAgMCAxIDYwLjAyNjM2MSA1Ny44OTUyNDhsLTE4LjQ2OTY0OSAyNzUuMjY4ODE3YTY2LjA2NDUxNiA2Ni4wNjQ1MTYgMCAwIDEtMi40ODYyOTkgMTIuMDc2MzFoMzIuMzIxODg3YTEyNy4xNTY0MzQgMTI3LjE1NjQzNCAwIDAgMCAxMjkuOTk3OTE4LTE2My43NDA1NDh6IG0tMjkxLjI1MjE2Ny0zOTYuMDMxOTEyYTcxLjAzNzExNCA3MS4wMzcxMTQgMCAwIDEtMTkuODkwMzkyIDQ4LjY2MDQyNCA5OC4zODY0MDMgOTguMzg2NDAzIDAgMCAwLTE1LjYyODE2NiAyMC42MDA3NjNsLTMuOTA3MDQxIDQuMjYyMjI3LTkuOTQ1MTk2IDE4LjQ2OTY0OWE5My43Njg5OTEgOTMuNzY4OTkxIDAgMCAxLTE1OS44MzM1MDcgMEw1MzIuNzc4MzU2IDQxNS41NjcxMThsLTIuNDg2Mjk5LTQuMjYyMjI3YTEwOS4wNDE5NyAxMDkuMDQxOTcgMCAwIDAtMTUuMjcyOTgtMjAuOTU1OTQ5IDcxLjAzNzExNCA3MS4wMzcxMTQgMCAwIDEtMTkuODkwMzkyLTQ4LjMwNTIzOFYyOTguNzExMDY1di01LjY4Mjk2OWE3LjgxNDA4MyA3LjgxNDA4MyAwIDAgMSAwLTIuODQxNDg1di0zMS42MTE1MTZBMzkuMDcwNDEzIDM5LjA3MDQxMyAwIDAgMSA1MzIuNzc4MzU2IDIyMC45MjU0MjVhMzQwLjk3ODE0OCAzNDAuOTc4MTQ4IDAgMCAwIDkxLjk5MzA2MyAyMi4zNzY2OTEgMTU2Ljk5MjAyMiAxNTYuOTkyMDIyIDAgMCAwIDgwLjYyNzEyNC0yMi43MzE4NzcgNDEuNTU2NzEyIDQxLjU1NjcxMiAwIDAgMSA0NC4wNDMwMTEgNDMuMzMyNjR2NzguMTQwODI1eiBtMCAwIi8+PC9zdmc+;" vertex="1" parent="1">
          <mxGeometry x="789" y="114" width="88.69" height="73" as="geometry" />
        </mxCell>
        <mxCell id="Qu1Yj1PFPhfgV0YWFb1x-14" value="&lt;span style=&quot;font-size: 26px;&quot;&gt;数据包&lt;/span&gt;" style="rounded=1;whiteSpace=wrap;html=1;fontColor=#000000;fillColor=#6DB5A8;" vertex="1" parent="1">
          <mxGeometry x="619.5" y="-103" width="220" height="44" as="geometry" />
        </mxCell>
        <mxCell id="Qu1Yj1PFPhfgV0YWFb1x-15" value="&lt;span style=&quot;font-size: 26px;&quot;&gt;&lt;font color=&quot;#ea6b66&quot;&gt;20.20.20.20&lt;/font&gt;&lt;/span&gt;" style="rounded=1;whiteSpace=wrap;html=1;fontColor=#000000;fillColor=#B9E0A5;" vertex="1" parent="1">
          <mxGeometry x="669.5" y="-59" width="170" height="44" as="geometry" />
        </mxCell>
        <mxCell id="Qu1Yj1PFPhfgV0YWFb1x-16" value="&lt;font style=&quot;font-size: 26px;&quot;&gt;发&lt;/font&gt;" style="rounded=1;whiteSpace=wrap;html=1;fontColor=#000000;fillColor=#B9E0A5;" vertex="1" parent="1">
          <mxGeometry x="619.5" y="-59" width="50" height="44" as="geometry" />
        </mxCell>
        <mxCell id="Qu1Yj1PFPhfgV0YWFb1x-17" value="&lt;span style=&quot;font-size: 26px;&quot;&gt;xx.xx.xx.xx&lt;/span&gt;" style="rounded=1;whiteSpace=wrap;html=1;fontColor=#000000;fillColor=#B9E0A5;" vertex="1" parent="1">
          <mxGeometry x="669.5" y="-15" width="170" height="44" as="geometry" />
        </mxCell>
        <mxCell id="Qu1Yj1PFPhfgV0YWFb1x-18" value="&lt;font style=&quot;font-size: 26px;&quot;&gt;收&lt;/font&gt;" style="rounded=1;whiteSpace=wrap;html=1;fontColor=#000000;fillColor=#B9E0A5;" vertex="1" parent="1">
          <mxGeometry x="619.5" y="-15" width="50" height="44" as="geometry" />
        </mxCell>
        <mxCell id="Qu1Yj1PFPhfgV0YWFb1x-19" value="" style="shape=flexArrow;endArrow=classic;startArrow=none;html=1;rounded=0;fontSize=26;strokeColor=none;fillColor=#F19C99;startFill=0;" edge="1" parent="1">
          <mxGeometry width="100" height="100" relative="1" as="geometry">
            <mxPoint x="768" y="161" as="sourcePoint" />
            <mxPoint x="691" y="161" as="targetPoint" />
          </mxGeometry>
        </mxCell>
        <mxCell id="Qu1Yj1PFPhfgV0YWFb1x-21" value="" style="shape=flexArrow;endArrow=classic;html=1;rounded=0;fontColor=#000000;strokeColor=none;fillColor=#FDD276;" edge="1" parent="1">
          <mxGeometry width="50" height="50" relative="1" as="geometry">
            <mxPoint x="728.6099999999999" y="97" as="sourcePoint" />
            <mxPoint x="728.6099999999999" y="47" as="targetPoint" />
          </mxGeometry>
        </mxCell>
        <mxCell id="Qu1Yj1PFPhfgV0YWFb1x-22" value="" style="shape=image;verticalLabelPosition=bottom;labelBackgroundColor=default;verticalAlign=top;aspect=fixed;imageAspect=0;image=data:image/svg+xml,PHN2ZyB4bWxuczp4bGluaz0iaHR0cDovL3d3dy53My5vcmcvMTk5OS94bGluayIgeG1sbnM9Imh0dHA6Ly93d3cudzMub3JnLzIwMDAvc3ZnIiBoZWlnaHQ9IjIwMCIgd2lkdGg9IjIwMCIgdmVyc2lvbj0iMS4xIiB2aWV3Qm94PSIwIDAgMTAyNCAxMDI0IiBjbGFzcz0iaWNvbiI+PHBhdGggZmlsbD0iI0YxOUM5OSIgZD0iTTk2MCAyNTMuMTg0bC00NDgtMTkyLTQ0OCAxOTJ2NTQ3LjM5Mmw0NDggMTkwLjcyIDM4LjY4OC0xNi40OGg4LjE5MnYtMy40ODhMOTYwIDgwMC42MDhWMjUzLjE4NHogbS00NDggMTYzLjQyNGwtMTEzLjUzNi00OC4zMiAzMTguOTQ0LTE0Ny4yYzAuNzM2LTAuMzUyIDEuMjE2LTAuOTkyIDEuOTItMS40MDhsMTI3LjIzMiA1NC41MjhMNTEyIDQxNi42MDh6IG0xMjguNzA0LTIzMC42MjRsLTMyMS42OTYgMTQ4LjQ4LTE0MS41NjgtNjAuMjg4TDUxMiAxMzAuODE2bDEyOC43MDQgNTUuMTY4ek0xMjggMzIyLjY4OGwxMjggNTQuNDk2VjU3NmEzMiAzMiAwIDEgMCA2NCAwdi0xNzEuNTJsMC4wNjQtMC4wMzIgMTc0LjgxNiA3NC40MzJ2NDM1LjU4NEwxMjggNzU4LjI3MlYzMjIuNjg4eiBtNDMwLjg4IDU3OS4xMDRWNDY2LjIwOEw4OTYgMzIyLjY4OHY0MzUuNjE2bC0zMzcuMTIgMTQzLjQ4OHoiLz48L3N2Zz4=;" vertex="1" parent="1">
          <mxGeometry x="709.75" y="105" width="39.5" height="39.5" as="geometry" />
        </mxCell>
        <mxCell id="Qu1Yj1PFPhfgV0YWFb1x-23" value="" style="shape=curlyBracket;whiteSpace=wrap;html=1;rounded=1;flipH=1;labelPosition=right;verticalLabelPosition=middle;align=left;verticalAlign=middle;strokeWidth=3;strokeColor=#F19C99;" vertex="1" parent="1">
          <mxGeometry x="664" y="71.25" width="20" height="186" as="geometry" />
        </mxCell>
      </root>
    </mxGraphModel>
  </diagram>
</mxfile>
